<svg viewBox="0 0 13 13">
<g clip-path="url(#clip0)">
<path d="M11.9985 8.1665C11.8197 8.1665 11.6747 8.31144 11.6747 8.49027V11.365C11.6741 11.9012 11.2397 12.3358 10.7034 12.3363H1.61884C1.0826 12.3358 0.648167 11.9012 0.647535 11.365V2.92792C0.648167 2.39181 1.0826 1.95725 1.61884 1.95662H4.49354C4.67237 1.95662 4.8173 1.81168 4.8173 1.63285C4.8173 1.45415 4.67237 1.30908 4.49354 1.30908H1.61884C0.725188 1.3101 0.00101177 2.03427 0 2.92792V11.3651C0.00101177 12.2587 0.725188 12.9829 1.61884 12.9839H10.7034C11.5971 12.9829 12.3212 12.2587 12.3223 11.3651V8.49027C12.3223 8.31144 12.1773 8.1665 11.9985 8.1665Z"/>
<path d="M12.1941 0.476027C11.6251 -0.0929688 10.7026 -0.0929688 10.1336 0.476027L4.35743 6.25224C4.31784 6.29182 4.28926 6.3409 4.27433 6.39477L3.51474 9.13706C3.48351 9.24949 3.51525 9.36989 3.59771 9.45248C3.6803 9.53494 3.8007 9.56668 3.91313 9.53557L6.65542 8.77585C6.70929 8.76093 6.75836 8.73235 6.79795 8.69276L12.574 2.91642C13.1421 2.34705 13.1421 1.42532 12.574 0.855948L12.1941 0.476027ZM5.06288 6.46269L9.79027 1.73518L11.3149 3.25979L6.58737 7.9873L5.06288 6.46269ZM4.75834 7.0738L5.97639 8.29197L4.29153 8.75878L4.75834 7.0738ZM12.1162 2.4586L11.7728 2.80197L10.2481 1.27722L10.5916 0.933854C10.9076 0.617802 11.4201 0.617802 11.7362 0.933854L12.1162 1.31377C12.4318 1.63021 12.4318 2.14229 12.1162 2.4586Z"/>
</g>
<defs>
<clipPath id="clip0">
<rect width="13" height="13" fill="white"/>
</clipPath>
</defs>
</svg>
