<svg viewBox="0 0 18 18" fill="none" xmlns="http://www.w3.org/2000/svg">
<path d="M1.09149 8.87711L8.58833 1.66427C8.6423 1.6122 8.70642 1.57089 8.777 1.5427C8.84758 1.51451 8.92325 1.5 8.99966 1.5C9.07607 1.5 9.15173 1.51451 9.22232 1.5427C9.2929 1.57089 9.35701 1.6122 9.41099 1.66427L16.9078 8.87711C17.1262 9.08739 17.25 9.37303 17.25 9.67094C17.25 10.2895 16.7276 10.7925 16.0852 10.7925H15.2953V15.9392C15.2953 16.2494 15.035 16.5 14.7128 16.5H10.1645V12.5746H8.12603V16.5H3.28648C2.96433 16.5 2.70406 16.2494 2.70406 15.9392V10.7925H1.91416C1.60475 10.7925 1.30808 10.6751 1.08967 10.463C0.636475 10.0249 0.636473 9.3152 1.09149 8.87711Z" fill="#151515"/>
</svg>
