<svg  viewBox="0 0 14 15" >
<g clip-path="url(#clip0)">
<path d="M11.375 4.875C11.375 2.46276 9.41223 0.5 7 0.5C4.58776 0.5 2.625 2.46276 2.625 4.875C2.625 5.8511 2.9575 6.74431 3.5 7.47293V14.0625C3.5 14.2185 3.58289 14.3624 3.7179 14.441C3.85248 14.5188 4.0191 14.5201 4.15454 14.4423L7 12.8162L9.84545 14.4423C9.91253 14.4808 9.98773 14.5 10.0625 14.5C10.1385 14.5 10.2142 14.4804 10.2821 14.441C10.4171 14.3624 10.5 14.2185 10.5 14.0625V7.47293C11.0425 6.74431 11.375 5.8511 11.375 4.875H11.375ZM7 1.375C8.92987 1.375 10.5 2.94513 10.5 4.875C10.5 6.80487 8.92987 8.375 7 8.375C5.07013 8.375 3.5 6.80487 3.5 4.875C3.5 2.94513 5.07013 1.375 7 1.375ZM7.21704 11.9327C7.08289 11.8558 6.91711 11.8558 6.78296 11.9327L4.375 13.3084V8.35261C5.10848 8.90787 6.0113 9.24998 7 9.24998C7.9887 9.24998 8.89152 8.90787 9.625 8.35261V13.3084L7.21705 11.9327H7.21704Z"/>
</g>
<defs>
<clipPath id="clip0">
<rect width="14" height="14" fill="white" transform="translate(0 0.5)"/>
</clipPath>
</defs>
</svg>
