<svg viewBox="0 0 16 16" fill="black" xmlns="http://www.w3.org/2000/svg">
<path d="M15.4286 4.00001H12.5714V0.571439C12.5714 0.255837 12.3156 0 12 0H0.571439C0.255837 0 0 0.255837 0 0.571439V13.7143C0 14.9767 1.02335 16 2.28572 16H13.7143C14.9767 16 16 14.9767 16 13.7143V4.57141C16 4.25585 15.7442 4.00001 15.4286 4.00001ZM2.28572 14.8571C1.65455 14.8571 1.14288 14.3454 1.14288 13.7143V1.14285H11.4286V13.7143C11.43 13.852 11.4439 13.9894 11.4703 14.1246C11.476 14.1571 11.4823 14.1892 11.4897 14.2211C11.518 14.3506 11.5573 14.4773 11.6074 14.6C11.6074 14.6057 11.6132 14.6108 11.6154 14.616C11.6506 14.6987 11.6907 14.7792 11.7354 14.8571H2.28572ZM14.8571 13.7143C14.8571 14.3454 14.3454 14.8571 13.7143 14.8571C13.0831 14.8571 12.5714 14.3454 12.5714 13.7143V5.14285H14.8572V13.7143H14.8571Z" />
<path d="M8.00001 2.85715H4.57144C4.25584 2.85715 4 3.11298 4 3.42859C4 3.74419 4.25584 4.00003 4.57144 4.00003H8.00001C8.31561 4.00003 8.57145 3.74419 8.57145 3.42859C8.57145 3.11298 8.31561 2.85715 8.00001 2.85715Z" />
<path d="M9.71422 5.71429H2.85708C2.54148 5.71429 2.28564 5.97013 2.28564 6.28573C2.28564 6.60134 2.54148 6.85717 2.85708 6.85717H9.71422C10.0298 6.85717 10.2857 6.60134 10.2857 6.28573C10.2857 5.97013 10.0298 5.71429 9.71422 5.71429Z" />
<path d="M9.71422 8H2.85708C2.54148 8 2.28564 8.25584 2.28564 8.57144C2.28564 8.88704 2.54148 9.14288 2.85708 9.14288H9.71422C10.0298 9.14288 10.2857 8.88704 10.2857 8.57144C10.2857 8.25584 10.0298 8 9.71422 8Z"/>
<path d="M9.71422 10.2857H2.85708C2.54148 10.2857 2.28564 10.5415 2.28564 10.8571C2.28564 11.1728 2.54148 11.4286 2.85708 11.4286H9.71422C10.0298 11.4286 10.2857 11.1728 10.2857 10.8571C10.2857 10.5415 10.0298 10.2857 9.71422 10.2857Z"/>
<path d="M9.71422 12.5714H2.85708C2.54148 12.5714 2.28564 12.8272 2.28564 13.1429C2.28564 13.4585 2.54151 13.7143 2.85708 13.7143H9.71422C10.0298 13.7143 10.2857 13.4584 10.2857 13.1428C10.2857 12.8272 10.0298 12.5714 9.71422 12.5714Z"/>
</svg>
