<svg viewBox="0 0 18 18" fill="none" xmlns="http://www.w3.org/2000/svg">
<path d="M12.8486 9.73569L12.8483 9.73591L7.59997 13.1098C7.59969 13.11 7.59941 13.1102 7.59913 13.1104C7.45375 13.2044 7.28787 13.25 7.12501 13.25C6.98116 13.25 6.83642 13.2143 6.70618 13.1432L12.8486 9.73569ZM12.8486 9.73569C13.098 9.57508 13.25 9.29799 13.25 9C13.25 8.70209 13.0981 8.42487 12.8485 8.26425L12.8483 8.2641M12.8486 9.73569L12.8483 8.2641M12.8483 8.2641L7.60128 4.89104C7.60068 4.89065 7.60009 4.89026 7.59949 4.88988C7.32755 4.71325 6.98227 4.70541 6.70545 4.8572C6.42438 5.01083 6.25 5.30495 6.25 5.625V12.375C6.25 12.6953 6.42462 12.9896 6.70604 13.1431L12.8483 8.2641ZM0.5 9C0.5 4.31361 4.31325 0.5 9 0.5C13.6867 0.5 17.5 4.31361 17.5 9C17.5 13.6864 13.6867 17.5 9 17.5C4.31325 17.5 0.5 13.6864 0.5 9Z" stroke="black"/>
</svg>
