<svg viewBox="0 0 16 16">
<g clip-path="url(#clip0)">
<path d="M14.7049 4.11974C14.6967 3.68776 14.6889 3.27968 14.6889 2.88488C14.6889 2.57559 14.4382 2.32484 14.1288 2.32484C11.7337 2.32484 9.91017 1.63651 8.39014 0.158604C8.1727 -0.0528673 7.82667 -0.0527926 7.6093 0.158604C6.08942 1.63651 4.26615 2.32484 1.87119 2.32484C1.5619 2.32484 1.31115 2.57559 1.31115 2.88488C1.31115 3.27975 1.30338 3.68798 1.29509 4.12004C1.21833 8.14008 1.11319 13.6457 7.81629 15.9692C7.87573 15.9898 7.9377 16.0001 7.99968 16.0001C8.06166 16.0001 8.12371 15.9898 8.18308 15.9692C14.8867 13.6457 14.7817 8.13986 14.7049 4.11974ZM7.99976 14.8457C2.25097 12.7574 2.33789 8.18257 2.41503 4.14139C2.41966 3.89886 2.42414 3.66379 2.42727 3.43335C4.67042 3.33867 6.4642 2.65893 7.99976 1.32125C9.53546 2.65893 11.3295 3.33874 13.5728 3.43335C13.576 3.66371 13.5805 3.89863 13.5851 4.14102C13.6621 8.18235 13.749 12.7573 7.99976 14.8457Z" />
<path d="M9.92825 6.05457L7.22519 8.75748L6.07173 7.60402C5.85302 7.38538 5.4984 7.38538 5.27976 7.60402C5.06104 7.8228 5.06104 8.17735 5.27976 8.39606L6.82921 9.94551C6.93853 10.0548 7.0819 10.1095 7.22519 10.1095C7.36849 10.1095 7.51186 10.0548 7.62118 9.94551L10.7201 6.84662C10.9389 6.6279 10.9389 6.27328 10.7202 6.05464C10.5016 5.83593 10.147 5.83585 9.92825 6.05457Z" />
</g>
<defs>
<clipPath id="clip0">
<rect width="16" height="16" fill="white"/>
</clipPath>
</defs>
</svg>
