<svg viewBox="0 0 16 16" >
<path d="M15.7474 6.14356L14.2839 5.77734C14.2067 5.56153 14.1162 5.34538 14.0134 5.13084L14.791 3.83463C14.8698 3.70344 14.849 3.53547 14.7409 3.42741L12.5726 1.25878C12.4646 1.15037 12.2959 1.13019 12.1654 1.20866L10.8688 1.98666C10.6547 1.88378 10.4385 1.79328 10.2227 1.71616L9.85644 0.252594C9.81934 0.104156 9.68619 0 9.53322 0H6.46681C6.31381 0 6.18069 0.104156 6.14356 0.252594L5.77734 1.71613C5.56153 1.79328 5.34537 1.88378 5.13119 1.98662L3.83462 1.20862C3.70344 1.1305 3.53547 1.15034 3.42741 1.25875L1.25912 3.42738C1.15106 3.53544 1.13022 3.70341 1.209 3.83459L1.98666 5.13081C1.88378 5.34534 1.79328 5.56147 1.71616 5.77731L0.252594 6.14356C0.104156 6.18066 0 6.31381 0 6.46681V9.53322C0 9.68622 0.104156 9.81934 0.252594 9.85647L1.71612 10.2227C1.79328 10.4385 1.88378 10.6547 1.98662 10.8692L1.20897 12.1654C1.13019 12.2966 1.15103 12.4646 1.25909 12.5726L3.42737 14.7409C3.53481 14.8487 3.70309 14.8692 3.83459 14.791L5.13081 14.0134C5.34534 14.1163 5.56147 14.2068 5.77731 14.2839L6.14353 15.7474C6.18066 15.8958 6.31378 16 6.46678 16H9.53319C9.68619 16 9.81931 15.8958 9.85644 15.7474L10.2227 14.2839C10.4385 14.2067 10.6546 14.1162 10.8692 14.0134L12.1654 14.791C12.2966 14.8695 12.4645 14.8493 12.5726 14.7409L14.7409 12.5726C14.8489 12.4646 14.8698 12.2966 14.791 12.1654L14.0133 10.8692C14.1162 10.6547 14.2067 10.4385 14.2838 10.2227L15.7474 9.85647C15.8958 9.81934 16 9.68622 16 9.53322V6.46681C16 6.31381 15.8958 6.18066 15.7474 6.14356ZM15.3333 9.27312L13.946 9.62012C13.8343 9.64778 13.7448 9.73147 13.7096 9.84084C13.6139 10.1371 13.4886 10.4369 13.3372 10.7321C13.2845 10.8343 13.2887 10.9568 13.348 11.0557L14.0856 12.2852L12.2851 14.0857L11.056 13.348C10.9573 13.2894 10.8356 13.2849 10.7324 13.3373C10.4368 13.4887 10.137 13.614 9.84081 13.7097C9.73144 13.7448 9.64778 13.8344 9.62009 13.946L9.27309 15.3334H6.72687L6.37987 13.946C6.35222 13.8344 6.26853 13.7448 6.15916 13.7097C5.86294 13.614 5.56312 13.4887 5.26756 13.3373C5.16469 13.2842 5.04231 13.2888 4.944 13.348L3.71484 14.0857L1.91437 12.2852L2.652 11.0557C2.71125 10.9567 2.71547 10.8343 2.66275 10.7321C2.51137 10.4368 2.38606 10.137 2.29034 9.84081C2.25519 9.73144 2.16566 9.64778 2.054 9.62009L0.666656 9.27312V6.72687L2.05403 6.37988C2.16569 6.35222 2.25522 6.26853 2.29037 6.15916C2.38609 5.86294 2.51141 5.56313 2.66278 5.26788C2.71553 5.16566 2.71128 5.04325 2.65203 4.94431L1.91437 3.71484L3.71484 1.91406L4.94434 2.65203C5.04331 2.71159 5.16569 2.71616 5.26791 2.66278C5.56316 2.51141 5.86297 2.38609 6.15919 2.29037C6.26856 2.25522 6.35222 2.16569 6.37991 2.05403L6.72691 0.666656H9.27312L9.62012 2.05403C9.64778 2.16569 9.73147 2.25522 9.84084 2.29037C10.1371 2.38609 10.4369 2.51141 10.7321 2.66278C10.834 2.71553 10.9567 2.71097 11.0557 2.65203L12.2852 1.91406L14.0857 3.71484L13.348 4.94434C13.2888 5.04331 13.2846 5.16569 13.3373 5.26791C13.4887 5.56316 13.614 5.86297 13.7097 6.15919C13.7448 6.26856 13.8344 6.35222 13.946 6.37991L15.3334 6.72691V9.27312H15.3333Z"/>
<path d="M8 4C5.79428 4 4 5.79428 4 8C4 10.2057 5.79428 12 8 12C10.2057 12 12 10.2057 12 8C12 5.79428 10.2057 4 8 4ZM8 11.3333C6.16209 11.3333 4.66666 9.83791 4.66666 8C4.66666 6.16209 6.16213 4.66666 8 4.66666C9.83787 4.66666 11.3333 6.16213 11.3333 8C11.3333 9.83787 9.83791 11.3333 8 11.3333Z"/>
</svg>
