<svg viewBox="0 0 13 12" >
<path d="M12.039 4.61993C11.9613 4.37958 11.7481 4.20887 11.4959 4.18614L8.06989 3.87505L6.71515 0.704161C6.61526 0.471776 6.38777 0.32135 6.135 0.32135C5.88224 0.32135 5.65475 0.471776 5.55486 0.704704L4.20012 3.87505L0.773577 4.18614C0.521811 4.20941 0.309169 4.37958 0.231013 4.61993C0.152857 4.86029 0.225036 5.12392 0.41549 5.2901L3.00514 7.56125L2.24151 10.925C2.18564 11.1724 2.28163 11.428 2.48685 11.5764C2.59716 11.6561 2.72621 11.6966 2.85635 11.6966C2.96856 11.6966 3.07986 11.6664 3.17975 11.6066L6.135 9.84036L9.08917 11.6066C9.30535 11.7367 9.57785 11.7248 9.78262 11.5764C9.98792 11.4276 10.0838 11.1718 10.028 10.925L9.26432 7.56125L11.854 5.29056C12.0444 5.12392 12.1172 4.86074 12.039 4.61993Z"/>
</svg>
